<mxfile host="65bd71144e">
    <diagram id="_FvfE5YlsGphuaXW-bQh" name="Page-1">
        <mxGraphModel dx="1086" dy="386" grid="1" gridSize="10" guides="1" tooltips="1" connect="1" arrows="1" fold="1" page="1" pageScale="1" pageWidth="850" pageHeight="1100" math="0" shadow="0">
            <root>
                <mxCell id="0"/>
                <mxCell id="1" parent="0"/>
                <mxCell id="2" value="Paciente" style="swimlane;fontStyle=1;align=center;verticalAlign=top;childLayout=stackLayout;horizontal=1;startSize=26;horizontalStack=0;resizeParent=1;resizeParentMax=0;resizeLast=0;collapsible=1;marginBottom=0;" parent="1" vertex="1">
                    <mxGeometry x="120" y="30" width="250" height="230" as="geometry"/>
                </mxCell>
                <mxCell id="3" value="- nombre : string&#10;- tratamientos : string" style="text;strokeColor=none;fillColor=none;align=left;verticalAlign=top;spacingLeft=4;spacingRight=4;overflow=hidden;rotatable=0;points=[[0,0.5],[1,0.5]];portConstraint=eastwest;" parent="2" vertex="1">
                    <mxGeometry y="26" width="250" height="74" as="geometry"/>
                </mxCell>
                <mxCell id="4" value="" style="line;strokeWidth=1;fillColor=none;align=left;verticalAlign=middle;spacingTop=-1;spacingLeft=3;spacingRight=3;rotatable=0;labelPosition=right;points=[];portConstraint=eastwest;strokeColor=inherit;" parent="2" vertex="1">
                    <mxGeometry y="100" width="250" height="8" as="geometry"/>
                </mxCell>
                <mxCell id="5" value="Paciente()&#10;Paciente(string nombre, string tratamiento)&#10;getNombre() : string&#10;getTratamiento() : string&#10;setNombre(nombre) : void&#10;setTratamientos() : void&#10;" style="text;strokeColor=none;fillColor=none;align=left;verticalAlign=top;spacingLeft=4;spacingRight=4;overflow=hidden;rotatable=0;points=[[0,0.5],[1,0.5]];portConstraint=eastwest;" parent="2" vertex="1">
                    <mxGeometry y="108" width="250" height="122" as="geometry"/>
                </mxCell>
                <mxCell id="6" value="Cita" style="swimlane;fontStyle=1;align=center;verticalAlign=top;childLayout=stackLayout;horizontal=1;startSize=26;horizontalStack=0;resizeParent=1;resizeParentMax=0;resizeLast=0;collapsible=1;marginBottom=0;" parent="1" vertex="1">
                    <mxGeometry x="510" y="40" width="280" height="230" as="geometry"/>
                </mxCell>
                <mxCell id="7" value="- nombrePaciente : string&#10;- fechaCita : string&#10;- estado : string" style="text;strokeColor=none;fillColor=none;align=left;verticalAlign=top;spacingLeft=4;spacingRight=4;overflow=hidden;rotatable=0;points=[[0,0.5],[1,0.5]];portConstraint=eastwest;" parent="6" vertex="1">
                    <mxGeometry y="26" width="280" height="54" as="geometry"/>
                </mxCell>
                <mxCell id="8" value="" style="line;strokeWidth=1;fillColor=none;align=left;verticalAlign=middle;spacingTop=-1;spacingLeft=3;spacingRight=3;rotatable=0;labelPosition=right;points=[];portConstraint=eastwest;strokeColor=inherit;" parent="6" vertex="1">
                    <mxGeometry y="80" width="280" height="8" as="geometry"/>
                </mxCell>
                <mxCell id="9" value="Cita(string nombrePaciente, string fechaCita, string estado)&#10;cancelarCita() : void&#10;reprogramarCita() : void&#10;getNombrePaciente() : string&#10;getFechaCita() : string&#10;getEstado() : string&#10; setNombrePaciente(nombrePaciente) : void&#10;setFechaCita(fechaCita) : void&#10;setEstado(estado) : void&#10;" style="text;strokeColor=none;fillColor=none;align=left;verticalAlign=top;spacingLeft=4;spacingRight=4;overflow=hidden;rotatable=0;points=[[0,0.5],[1,0.5]];portConstraint=eastwest;" parent="6" vertex="1">
                    <mxGeometry y="88" width="280" height="142" as="geometry"/>
                </mxCell>
                <mxCell id="11" value="Sistema" style="swimlane;fontStyle=1;align=center;verticalAlign=top;childLayout=stackLayout;horizontal=1;startSize=26;horizontalStack=0;resizeParent=1;resizeParentMax=0;resizeLast=0;collapsible=1;marginBottom=0;" parent="1" vertex="1">
                    <mxGeometry x="225" y="400" width="400" height="200" as="geometry"/>
                </mxCell>
                <mxCell id="12" value="- pacientes : vecotr &lt;Paciente&gt;&#10;- citas: vecotr &lt;Cita&gt;" style="text;strokeColor=none;fillColor=none;align=left;verticalAlign=top;spacingLeft=4;spacingRight=4;overflow=hidden;rotatable=0;points=[[0,0.5],[1,0.5]];portConstraint=eastwest;" parent="11" vertex="1">
                    <mxGeometry y="26" width="400" height="44" as="geometry"/>
                </mxCell>
                <mxCell id="13" value="" style="line;strokeWidth=1;fillColor=none;align=left;verticalAlign=middle;spacingTop=-1;spacingLeft=3;spacingRight=3;rotatable=0;labelPosition=right;points=[];portConstraint=eastwest;strokeColor=inherit;" parent="11" vertex="1">
                    <mxGeometry y="70" width="400" height="8" as="geometry"/>
                </mxCell>
                <mxCell id="14" value="agregarPaciente(string nombre, string tratamiento) :  void&#10;agendarCita (string nombrePaciente, string fechaCita) :  void&#10;reprogramarCita(string nombrePacinte, string nuevaFecha) : void&#10;agendarNotaTratameinto(string nombrePaciente, string nota) : void&#10;mostrarCita() : void&#10;mostrarPacientes() : void" style="text;strokeColor=none;fillColor=none;align=left;verticalAlign=top;spacingLeft=4;spacingRight=4;overflow=hidden;rotatable=0;points=[[0,0.5],[1,0.5]];portConstraint=eastwest;" parent="11" vertex="1">
                    <mxGeometry y="78" width="400" height="122" as="geometry"/>
                </mxCell>
                <mxCell id="24" value="" style="endArrow=diamondThin;endFill=1;endSize=24;html=1;exitX=0.44;exitY=1.025;exitDx=0;exitDy=0;exitPerimeter=0;entryX=0.25;entryY=0;entryDx=0;entryDy=0;" parent="1" source="5" target="11" edge="1">
                    <mxGeometry width="160" relative="1" as="geometry">
                        <mxPoint x="310" y="310" as="sourcePoint"/>
                        <mxPoint x="470" y="310" as="targetPoint"/>
                    </mxGeometry>
                </mxCell>
                <mxCell id="25" value="" style="endArrow=diamondThin;endFill=1;endSize=24;html=1;" parent="1" source="9" target="11" edge="1">
                    <mxGeometry width="160" relative="1" as="geometry">
                        <mxPoint x="310" y="310" as="sourcePoint"/>
                        <mxPoint x="470" y="310" as="targetPoint"/>
                    </mxGeometry>
                </mxCell>
            </root>
        </mxGraphModel>
    </diagram>
</mxfile>